<svg xmlns="http://www.w3.org/2000/svg" preserveAspectRatio="xMidYMid" width="86" height="69" viewBox="0 0 86 69" data-prefix="iw7gjt5gk"><path d="M75.335 64.927l-1.834-1.989 9.915-9.178 1.834 1.989-9.915 9.178zm.981-10.092c-.009-.029-1.013-3.248-3.821-7.281-2.549-3.659-7.159-8.748-14.644-12.363l-.692 5.34c-.012.091-.053.167-.081.25 2.889 4.341 8.866 11.948 17.565 16.235l1.213.598-1.194 2.429-1.212-.597c-7.023-3.462-12.291-8.899-15.473-12.85-3.441-4.274-5.218-7.706-5.292-7.85l-.618-1.203 2.403-1.239.408.795.554-4.27-5.119 4.554a1.348 1.348 0 0 1-1.907-.113 1.354 1.354 0 0 1 .113-1.911l10.524-9.365-.825 6.363.529.25c8.232 3.9 13.262 9.492 16.033 13.497 3.019 4.365 4.079 7.802 4.123 7.946l.392 1.296-2.587.785-.392-1.296zM56.701 22.712L41.668 37.011l2.595 2.639-6.691 6.606-17.944-18.244 6.692-6.605 2.217 2.253L43.569 9.361 40.85 6.597l6.692-6.605 17.944 18.243-6.691 6.606-2.094-2.129zm-30.41 2.523L23.45 28.04 37.6 42.427l2.842-2.805-14.151-14.387zm4.143.354l9.337 9.494 15.033-14.3-9.338-9.493-15.032 14.299zm31.23-7.382L47.514 3.82l-2.842 2.805 14.151 14.387 2.841-2.805zM46.161 60.005c0 .747-.605 1.353-1.351 1.353H17.381c-.746 0-1.35-.606-1.35-1.353s.604-1.353 1.35-1.353H44.81c.746 0 1.351.606 1.351 1.353zM10.628 30.333l2.419-1.207 3.225 6.487-2.419 1.207-3.225-6.487zm-7.929 8.592l1.528-2.233 6.356 4.363-1.528 2.233-6.356-4.363zm5.578 12.051H.013V48.27h8.264v2.706zm2.872 7.128l-5.562 4.537-1.706-2.099 5.561-4.537 1.707 2.099zm.688 7.076h38.615a1.352 1.352 0 0 1 0 2.706H11.837a1.352 1.352 0 1 1 0-2.706z" fill-rule="evenodd" class="path-iiyq4w7oc"></path></svg>