<svg xmlns="http://www.w3.org/2000/svg" xmlns:xlink="http://www.w3.org/1999/xlink" preserveAspectRatio="xMidYMid" width="28" height="20" viewBox="0 0 28 20">
  <defs>
    <style>

      .cls-2 {
        fill: #ffffff;
      }
    </style>
  </defs>
  <path d="M27.500,20.000 C27.500,20.000 0.500,20.000 0.500,20.000 C0.224,20.000 -0.000,19.776 -0.000,19.500 C-0.000,19.500 -0.000,17.500 -0.000,17.500 C-0.000,17.224 0.224,17.000 0.500,17.000 C0.500,17.000 27.500,17.000 27.500,17.000 C27.776,17.000 28.000,17.224 28.000,17.500 C28.000,17.500 28.000,19.500 28.000,19.500 C28.000,19.776 27.776,20.000 27.500,20.000 ZM27.500,11.000 C27.500,11.000 10.500,11.000 10.500,11.000 C10.224,11.000 10.000,10.776 10.000,10.500 C10.000,10.500 10.000,8.500 10.000,8.500 C10.000,8.224 10.224,8.000 10.500,8.000 C10.500,8.000 27.500,8.000 27.500,8.000 C27.776,8.000 28.000,8.224 28.000,8.500 C28.000,8.500 28.000,10.500 28.000,10.500 C28.000,10.776 27.776,11.000 27.500,11.000 ZM27.500,3.000 C27.500,3.000 25.500,3.000 25.500,3.000 C25.224,3.000 25.000,2.776 25.000,2.500 C25.000,2.500 25.000,0.500 25.000,0.500 C25.000,0.224 25.224,-0.000 25.500,-0.000 C25.500,-0.000 27.500,-0.000 27.500,-0.000 C27.776,-0.000 28.000,0.224 28.000,0.500 C28.000,0.500 28.000,2.500 28.000,2.500 C28.000,2.776 27.776,3.000 27.500,3.000 ZM20.500,3.000 C20.500,3.000 0.500,3.000 0.500,3.000 C0.224,3.000 -0.000,2.776 -0.000,2.500 C-0.000,2.500 -0.000,0.500 -0.000,0.500 C-0.000,0.224 0.224,-0.000 0.500,-0.000 C0.500,-0.000 20.500,-0.000 20.500,-0.000 C20.776,-0.000 21.000,0.224 21.000,0.500 C21.000,0.500 21.000,2.500 21.000,2.500 C21.000,2.776 20.776,3.000 20.500,3.000 ZM0.500,8.000 C0.500,8.000 5.500,8.000 5.500,8.000 C5.776,8.000 6.000,8.224 6.000,8.500 C6.000,8.500 6.000,10.500 6.000,10.500 C6.000,10.776 5.776,11.000 5.500,11.000 C5.500,11.000 0.500,11.000 0.500,11.000 C0.224,11.000 -0.000,10.776 -0.000,10.500 C-0.000,10.500 -0.000,8.500 -0.000,8.500 C-0.000,8.224 0.224,8.000 0.500,8.000 Z" id="path-1" class="cls-2" fill-rule="evenodd"/>
</svg>
