<svg xmlns="http://www.w3.org/2000/svg" xmlns:xlink="http://www.w3.org/1999/xlink" preserveAspectRatio="xMidYMid" width="264" height="184" viewBox="0 0 264 184">
  <defs>
    <style>

      .cls-2 {
        fill: #949494;
      }
    </style>
  </defs>
  <path d="M80.180,116.440 C81.815,116.440 81.812,118.979 80.180,118.979 C80.180,118.979 50.371,118.979 50.371,118.979 C48.736,118.979 48.738,116.440 50.371,116.440 C50.371,116.440 80.180,116.440 80.180,116.440 ZM183.818,118.979 C182.183,118.979 182.186,116.440 183.818,116.440 C183.818,116.440 213.628,116.440 213.628,116.440 C215.263,116.440 215.260,118.979 213.628,118.979 C213.628,118.979 183.818,118.979 183.818,118.979 ZM259.868,184.000 C259.868,184.000 4.131,184.000 4.131,184.000 C1.853,184.000 -0.001,182.170 -0.001,179.921 C-0.001,178.279 0.962,176.886 2.344,176.223 C2.344,176.223 55.616,133.593 55.616,133.593 C55.616,133.593 59.442,130.531 59.442,130.531 C60.987,130.232 62.437,129.964 63.821,129.726 C72.949,128.156 79.420,127.855 94.053,128.175 C100.588,128.318 107.219,129.406 113.546,131.382 C114.073,131.320 114.600,131.269 115.127,131.230 C115.467,129.557 116.180,127.995 117.527,126.696 C119.516,124.775 122.382,123.479 125.268,122.366 C122.273,119.406 120.905,115.210 121.433,110.527 C121.989,105.596 123.812,100.777 125.221,96.042 C125.221,96.042 126.451,91.910 126.451,91.910 C126.451,91.910 126.451,80.475 126.451,80.475 C123.942,79.093 121.967,77.010 122.112,73.811 C122.241,70.938 124.098,69.317 126.425,68.399 C126.434,68.379 126.441,68.358 126.451,68.338 C126.451,68.338 126.451,54.532 126.451,54.532 C124.290,51.805 122.930,48.543 122.458,45.138 C114.413,37.439 103.028,35.375 92.426,39.108 C84.934,41.745 76.844,45.631 69.239,42.793 C69.143,42.861 69.044,42.924 68.944,42.987 C68.944,42.987 92.779,99.589 92.779,99.589 C93.219,99.986 93.481,100.561 93.449,101.181 C93.442,101.309 93.432,101.437 93.399,101.567 C93.397,101.576 93.395,101.584 93.393,101.592 C93.105,102.734 92.730,103.838 92.257,104.887 C90.996,107.681 89.018,110.075 85.951,111.680 C83.484,112.970 80.693,113.433 77.899,113.646 C76.447,113.757 74.994,113.805 73.585,113.859 C70.816,113.965 68.046,114.021 65.275,114.049 C62.505,114.021 59.735,113.965 56.966,113.859 C55.557,113.805 54.104,113.757 52.652,113.646 C49.857,113.433 47.066,112.970 44.600,111.680 C41.533,110.075 39.554,107.681 38.294,104.887 C37.821,103.838 37.446,102.734 37.158,101.592 C37.156,101.584 37.153,101.576 37.151,101.567 C37.119,101.437 37.108,101.309 37.102,101.181 C37.070,100.561 37.332,99.986 37.772,99.589 C37.772,99.589 61.607,42.987 61.607,42.987 C59.661,41.762 58.361,39.599 58.361,37.132 C58.361,33.317 61.462,30.213 65.275,30.213 C68.510,30.213 71.226,32.450 71.977,35.458 C81.778,36.849 91.559,27.353 101.126,26.008 C109.658,24.809 118.218,27.350 124.868,32.669 C125.539,31.513 126.339,30.404 127.279,29.365 C126.290,26.575 123.750,23.736 122.830,21.474 C121.599,18.447 121.789,15.259 122.953,12.237 C124.577,8.021 127.695,4.888 130.750,1.698 C131.288,1.137 131.821,0.571 132.346,0.000 C132.871,0.571 133.404,1.137 133.942,1.698 C136.997,4.888 140.115,8.021 141.739,12.237 C142.903,15.259 143.093,18.447 141.862,21.474 C140.943,23.736 138.402,26.575 137.414,29.365 C138.353,30.404 139.153,31.513 139.824,32.669 C146.474,27.350 155.035,24.809 163.566,26.008 C172.901,27.320 182.439,36.387 192.002,35.534 C192.725,32.488 195.460,30.213 198.723,30.213 C202.536,30.213 205.638,33.317 205.638,37.132 C205.638,39.598 204.338,41.761 202.392,42.987 C202.392,42.987 226.226,99.589 226.226,99.589 C226.667,99.986 226.928,100.561 226.897,101.181 C226.890,101.309 226.880,101.437 226.847,101.567 C226.845,101.576 226.843,101.584 226.841,101.592 C226.552,102.734 226.177,103.838 225.704,104.887 C224.444,107.681 222.465,110.075 219.398,111.680 C216.932,112.970 214.141,113.433 211.346,113.646 C209.895,113.757 208.441,113.805 207.033,113.859 C204.263,113.965 201.493,114.021 198.723,114.049 C195.953,114.021 193.183,113.965 190.413,113.859 C189.005,113.805 187.552,113.757 186.100,113.646 C183.305,113.433 180.514,112.970 178.048,111.680 C174.981,110.075 173.002,107.681 171.742,104.887 C171.269,103.838 170.894,102.734 170.605,101.592 C170.603,101.584 170.601,101.576 170.599,101.567 C170.566,101.437 170.556,101.309 170.549,101.181 C170.518,100.561 170.779,99.986 171.220,99.589 C171.220,99.589 195.054,42.987 195.054,42.987 C195.035,42.975 195.016,42.964 194.997,42.952 C187.525,45.474 179.608,41.692 172.266,39.108 C161.665,35.375 150.279,37.439 142.234,45.138 C141.762,48.543 140.402,51.805 138.242,54.532 C138.242,54.532 138.242,68.388 138.242,68.388 C140.581,69.304 142.450,70.927 142.581,73.811 C142.725,77.010 140.750,79.093 138.242,80.475 C138.242,80.475 138.242,91.910 138.242,91.910 C138.242,91.910 139.471,96.042 139.471,96.042 C140.880,100.777 142.703,105.596 143.259,110.527 C143.787,115.210 142.419,119.406 139.424,122.366 C142.310,123.479 145.176,124.775 147.166,126.696 C148.512,127.995 149.225,129.557 149.565,131.230 C149.908,131.255 150.252,131.299 150.595,131.335 C156.879,129.388 163.460,128.317 169.946,128.175 C184.578,127.855 191.049,128.156 200.178,129.726 C201.562,129.964 203.012,130.232 204.556,130.531 C204.556,130.531 208.383,133.593 208.383,133.593 C208.383,133.593 261.651,176.220 261.651,176.220 C263.035,176.880 264.000,178.267 264.000,179.883 C264.000,182.170 262.146,184.000 259.868,184.000 ZM227.904,175.228 C227.904,175.228 249.691,175.228 249.691,175.228 C249.691,175.228 245.956,170.857 245.956,170.857 C229.871,165.064 212.823,162.110 195.679,162.211 C184.701,162.276 173.716,163.575 163.048,166.180 C157.266,167.592 151.380,169.514 146.302,172.618 C146.302,172.618 159.698,175.228 159.698,175.228 C159.698,175.228 162.651,175.228 162.651,175.228 C183.817,169.045 206.686,168.970 227.904,175.228 ZM172.153,175.228 C172.153,175.228 206.555,175.228 206.555,175.228 C206.555,175.228 218.657,175.228 218.657,175.228 C203.355,172.018 187.437,172.057 172.153,175.228 ZM133.151,172.405 C133.151,172.405 132.856,172.347 132.856,172.347 C132.856,172.347 131.999,172.180 131.999,172.180 C131.999,172.180 131.143,172.347 131.143,172.347 C131.143,172.347 130.847,172.405 130.847,172.405 C130.847,172.405 116.358,175.228 116.358,175.228 C116.358,175.228 127.828,175.228 127.828,175.228 C127.828,175.228 130.615,175.228 130.615,175.228 C130.615,175.228 130.847,175.228 130.847,175.228 C130.847,175.228 133.151,175.228 133.151,175.228 C133.151,175.228 133.384,175.228 133.384,175.228 C133.384,175.228 136.171,175.228 136.171,175.228 C136.171,175.228 147.641,175.228 147.641,175.228 C147.641,175.228 133.151,172.405 133.151,172.405 ZM158.949,182.250 C158.948,182.235 158.944,182.223 158.944,182.208 C158.944,182.208 158.944,177.597 158.944,177.597 C158.944,177.582 158.948,177.570 158.949,177.555 C158.949,177.555 105.054,177.555 105.054,177.555 C105.054,177.555 105.054,181.672 105.054,181.672 C105.054,181.902 104.995,182.091 104.902,182.250 C104.902,182.250 158.949,182.250 158.949,182.250 ZM117.697,172.618 C112.618,169.514 106.732,167.592 100.951,166.180 C90.284,163.575 79.297,162.276 68.320,162.211 C51.176,162.110 34.128,165.064 18.043,170.857 C18.043,170.857 14.307,175.228 14.307,175.228 C14.307,175.228 36.095,175.228 36.095,175.228 C57.313,168.970 80.181,169.045 101.347,175.228 C101.347,175.228 104.301,175.228 104.301,175.228 C104.301,175.228 117.697,172.618 117.697,172.618 ZM45.342,175.228 C45.342,175.228 57.443,175.228 57.443,175.228 C57.443,175.228 91.846,175.228 91.846,175.228 C76.561,172.057 60.643,172.018 45.342,175.228 ZM4.131,177.555 C3.367,177.555 2.693,177.921 2.262,178.478 C1.959,178.870 1.772,179.353 1.772,179.883 C1.772,181.205 2.830,182.250 4.131,182.250 C4.131,182.250 102.903,182.250 102.903,182.250 C102.810,182.091 102.750,181.901 102.750,181.672 C102.750,181.672 102.750,177.555 102.750,177.555 C102.750,177.555 4.457,177.555 4.457,177.555 C4.457,177.555 4.131,177.555 4.131,177.555 ZM6.761,175.804 C6.761,175.804 10.781,175.804 10.781,175.804 C10.781,175.804 11.274,175.228 11.274,175.228 C11.274,175.228 19.308,165.830 19.308,165.830 C14.305,169.870 9.934,173.358 6.761,175.804 ZM20.977,167.424 C37.055,162.108 53.992,159.531 70.980,159.946 C82.399,160.225 93.968,161.735 104.973,164.848 C110.628,166.447 116.151,168.672 120.879,171.998 C120.879,171.998 129.323,170.353 129.323,170.353 C127.512,168.479 125.552,166.794 123.470,165.278 C122.851,164.827 122.219,164.395 121.578,163.975 C110.383,156.613 96.119,153.763 82.681,153.218 C64.659,152.487 46.544,154.279 28.917,158.137 C28.917,158.137 20.977,167.424 20.977,167.424 ZM89.858,130.248 C75.359,130.305 69.298,130.850 60.156,132.655 C52.291,138.969 42.232,147.191 32.666,154.985 C50.484,151.398 68.841,149.861 86.876,151.145 C99.475,152.043 112.497,155.241 122.950,162.153 C123.592,162.577 124.226,163.011 124.848,163.463 C126.981,165.017 128.986,166.747 130.847,168.651 C130.847,168.651 130.847,142.464 130.847,142.464 C130.598,142.282 130.355,142.090 130.103,141.912 C118.718,133.871 103.851,130.192 89.858,130.248 ZM66.585,43.924 C66.572,43.926 66.557,43.927 66.544,43.930 C66.544,43.930 66.544,99.053 66.544,99.053 C66.544,99.053 89.800,99.053 89.800,99.053 C89.800,99.053 66.585,43.924 66.585,43.924 ZM40.714,103.822 C42.217,107.058 44.811,109.583 49.185,110.607 C53.545,111.628 58.380,111.401 62.832,111.486 C63.646,111.501 64.461,111.494 65.275,111.502 C66.090,111.494 66.904,111.501 67.719,111.486 C72.171,111.401 77.006,111.628 81.366,110.607 C85.739,109.583 88.334,107.058 89.837,103.822 C90.320,102.782 89.528,101.592 88.382,101.592 C88.382,101.592 42.169,101.592 42.169,101.592 C41.023,101.592 40.230,102.782 40.714,103.822 ZM40.751,99.053 C40.751,99.053 64.007,99.053 64.007,99.053 C64.007,99.053 64.007,43.930 64.007,43.930 C63.993,43.927 63.979,43.926 63.966,43.924 C63.966,43.924 40.751,99.053 40.751,99.053 ZM65.275,32.751 C62.861,32.751 60.898,34.717 60.898,37.132 C60.898,39.548 62.861,41.513 65.275,41.513 C67.690,41.513 69.653,39.548 69.653,37.132 C69.653,34.717 67.690,32.751 65.275,32.751 ZM200.033,43.924 C200.019,43.926 200.005,43.927 199.991,43.930 C199.991,43.930 199.991,99.053 199.991,99.053 C199.991,99.053 223.248,99.053 223.248,99.053 C223.248,99.053 200.033,43.924 200.033,43.924 ZM174.161,103.822 C175.664,107.058 178.259,109.583 182.632,110.607 C186.993,111.628 191.828,111.401 196.280,111.486 C197.094,111.501 197.909,111.494 198.723,111.502 C199.538,111.494 200.352,111.501 201.166,111.486 C205.618,111.401 210.453,111.628 214.814,110.607 C219.187,109.583 221.782,107.058 223.285,103.822 C223.768,102.782 222.976,101.592 221.829,101.592 C221.829,101.592 175.616,101.592 175.616,101.592 C174.470,101.592 173.678,102.782 174.161,103.822 ZM174.198,99.053 C174.198,99.053 197.454,99.053 197.454,99.053 C197.454,99.053 197.454,43.930 197.454,43.930 C197.441,43.927 197.427,43.926 197.413,43.924 C197.413,43.924 174.198,99.053 174.198,99.053 ZM198.723,41.513 C201.137,41.513 203.101,39.548 203.101,37.132 C203.101,34.717 201.137,32.751 198.723,32.751 C196.309,32.751 194.345,34.717 194.345,37.132 C194.345,39.548 196.309,41.513 198.723,41.513 ZM139.143,47.483 C139.524,46.312 139.778,45.103 139.900,43.880 C140.698,43.079 141.534,42.323 142.406,41.616 C148.166,36.943 155.434,34.348 162.980,34.610 C172.637,34.946 183.360,43.371 192.964,40.955 C192.387,40.088 192.005,39.083 191.869,38.002 C185.114,38.322 178.548,34.405 172.332,31.453 C161.843,26.472 149.878,27.559 140.974,35.007 C140.571,35.344 140.165,35.678 139.774,36.042 C139.507,36.291 139.210,36.388 138.923,36.386 C138.876,36.263 138.834,36.139 138.784,36.016 C137.918,33.890 136.568,31.890 134.702,30.148 C134.905,29.308 135.237,28.466 135.643,27.623 C137.275,24.235 140.069,20.830 140.204,17.488 C140.433,11.840 136.416,7.547 132.346,3.350 C128.276,7.547 124.259,11.840 124.488,17.488 C124.623,20.830 127.417,24.235 129.049,27.623 C129.455,28.466 129.787,29.308 129.990,30.148 C128.124,31.890 126.774,33.890 125.908,36.016 C125.858,36.139 125.816,36.263 125.769,36.386 C125.482,36.388 125.185,36.291 124.918,36.042 C124.527,35.678 124.121,35.344 123.718,35.007 C114.814,27.559 102.849,26.472 92.360,31.453 C85.933,34.505 79.132,38.600 72.135,37.966 C72.011,38.992 71.661,39.947 71.137,40.785 C80.891,43.715 91.857,34.953 101.713,34.610 C109.258,34.348 116.526,36.943 122.286,41.616 C123.158,42.323 123.994,43.079 124.792,43.880 C124.914,45.103 125.168,46.312 125.549,47.483 C125.796,48.240 126.100,48.979 126.451,49.698 C127.083,50.995 127.887,52.212 128.842,53.323 C128.842,53.323 135.850,53.323 135.850,53.323 C136.805,52.212 137.610,50.995 138.242,49.698 C138.592,48.979 138.896,48.240 139.143,47.483 ZM128.987,55.861 C128.987,55.861 128.987,67.713 128.987,67.713 C128.987,67.713 135.705,67.713 135.705,67.713 C135.705,67.713 135.705,55.861 135.705,55.861 C135.705,55.861 128.987,55.861 128.987,55.861 ZM139.966,74.853 C140.331,73.039 139.516,71.889 138.242,71.147 C137.531,70.733 136.680,70.449 135.804,70.252 C135.804,70.252 128.889,70.252 128.889,70.252 C128.012,70.449 127.161,70.733 126.451,71.147 C125.177,71.889 124.361,73.039 124.726,74.853 C124.959,76.008 125.601,76.882 126.451,77.567 C127.043,78.044 127.739,78.425 128.470,78.743 C128.470,78.743 136.222,78.743 136.222,78.743 C136.953,78.425 137.649,78.044 138.242,77.567 C139.091,76.882 139.733,76.008 139.966,74.853 ZM138.628,102.107 C138.500,101.674 138.370,101.241 138.242,100.807 C137.398,97.964 136.551,95.123 135.705,92.281 C135.705,92.281 135.705,81.281 135.705,81.281 C135.705,81.281 128.987,81.281 128.987,81.281 C128.987,81.281 128.987,92.281 128.987,92.281 C128.141,95.123 127.294,97.964 126.451,100.807 C126.322,101.241 126.192,101.674 126.064,102.107 C124.286,108.101 122.523,115.467 126.451,120.071 C126.855,120.544 127.329,120.984 127.861,121.394 C127.920,121.439 127.984,121.482 128.044,121.527 C128.044,121.527 136.648,121.527 136.648,121.527 C136.708,121.482 136.772,121.439 136.831,121.394 C137.363,120.984 137.837,120.544 138.242,120.071 C142.169,115.467 140.406,108.101 138.628,102.107 ZM146.759,131.096 C146.206,129.487 145.123,128.099 143.154,127.056 C141.571,126.218 139.914,125.486 138.242,124.783 C137.665,124.540 137.088,124.303 136.511,124.066 C136.511,124.066 128.182,124.066 128.182,124.066 C127.604,124.303 127.027,124.540 126.451,124.783 C124.778,125.486 123.121,126.218 121.538,127.056 C119.569,128.099 118.486,129.487 117.933,131.096 C117.749,131.630 117.641,132.196 117.562,132.774 C122.277,134.570 126.766,136.873 130.847,139.671 C131.232,139.934 131.622,140.191 131.999,140.466 C132.377,140.191 132.767,139.934 133.151,139.671 C137.423,136.743 142.143,134.360 147.100,132.530 C147.021,132.037 146.917,131.555 146.759,131.096 ZM203.842,132.655 C194.701,130.850 188.640,130.305 174.140,130.248 C160.148,130.192 145.280,133.871 133.897,141.912 C133.644,142.090 133.401,142.282 133.151,142.464 C133.151,142.464 133.151,168.651 133.151,168.651 C135.013,166.747 137.018,165.017 139.151,163.463 C139.773,163.011 140.407,162.577 141.048,162.153 C151.502,155.241 164.523,152.043 177.123,151.145 C195.158,149.861 213.515,151.398 231.333,154.985 C221.767,147.191 211.708,138.969 203.842,132.655 ZM235.081,158.137 C217.455,154.279 199.340,152.487 181.318,153.218 C167.880,153.763 153.616,156.613 142.420,163.975 C141.780,164.395 141.148,164.827 140.529,165.278 C138.447,166.794 136.486,168.479 134.676,170.353 C134.676,170.353 143.120,171.998 143.120,171.998 C147.848,168.672 153.371,166.447 159.026,164.848 C170.031,161.735 181.601,160.225 193.018,159.946 C210.006,159.531 226.944,162.108 243.021,167.424 C243.021,167.424 235.081,158.137 235.081,158.137 ZM244.691,165.830 C244.691,165.830 252.724,175.228 252.724,175.228 C252.724,175.228 253.217,175.804 253.217,175.804 C253.217,175.804 257.237,175.804 257.237,175.804 C254.064,173.358 249.694,169.870 244.691,165.830 ZM261.732,178.481 C261.301,177.919 260.630,177.555 259.868,177.555 C259.868,177.555 259.542,177.555 259.542,177.555 C259.542,177.555 161.244,177.555 161.244,177.555 C161.244,177.570 161.248,177.582 161.248,177.597 C161.248,177.597 161.248,182.208 161.248,182.208 C161.248,182.223 161.244,182.235 161.244,182.250 C161.244,182.250 259.868,182.250 259.868,182.250 C261.169,182.250 262.227,181.205 262.227,179.921 C262.227,179.373 262.038,178.879 261.732,178.481 ZM132.346,45.565 C129.352,45.565 126.916,43.128 126.916,40.132 C126.916,37.136 129.352,34.698 132.346,34.698 C135.340,34.698 137.776,37.136 137.776,40.132 C137.776,43.128 135.340,45.565 132.346,45.565 ZM132.346,37.237 C130.751,37.237 129.453,38.536 129.453,40.132 C129.453,41.728 130.751,43.026 132.346,43.026 C133.941,43.026 135.239,41.728 135.239,40.132 C135.239,38.536 133.941,37.237 132.346,37.237 Z" id="path-1" class="cls-2" fill-rule="evenodd"/>
</svg>

